<svg width="18" height="19" viewBox="0 0 18 19" fill="none" xmlns="http://www.w3.org/2000/svg">
<g clip-path="url(#clip0_7839_706)">
<path d="M13.5001 5.87C13.4551 5.8625 13.4026 5.8625 13.3576 5.87C12.3226 5.8325 11.4976 4.985 11.4976 3.935C11.4976 2.8625 12.3601 2 13.4326 2C14.5051 2 15.3676 2.87 15.3676 3.935C15.3601 4.985 14.5351 5.8325 13.5001 5.87Z" stroke="#131415" stroke-width="1.5" stroke-linecap="round" stroke-linejoin="round"/>
<path d="M12.7276 11.3301C13.7551 11.5026 14.8876 11.3226 15.6826 10.7901C16.7401 10.0851 16.7401 8.93012 15.6826 8.22512C14.8801 7.69262 13.7326 7.51262 12.7051 7.69262" stroke="#131415" stroke-width="1.5" stroke-linecap="round" stroke-linejoin="round"/>
<path d="M4.47736 5.87C4.52236 5.8625 4.57486 5.8625 4.61986 5.87C5.65486 5.8325 6.47986 4.985 6.47986 3.935C6.47986 2.8625 5.61736 2 4.54486 2C3.47236 2 2.60986 2.87 2.60986 3.935C2.61736 4.985 3.44236 5.8325 4.47736 5.87Z" stroke="#131415" stroke-width="1.5" stroke-linecap="round" stroke-linejoin="round"/>
<path d="M5.25008 11.3301C4.22258 11.5026 3.09008 11.3226 2.29508 10.7901C1.23758 10.0851 1.23758 8.93012 2.29508 8.22512C3.09758 7.69262 4.24508 7.51262 5.27258 7.69262" stroke="#131415" stroke-width="1.5" stroke-linecap="round" stroke-linejoin="round"/>
<path d="M9.00006 11.4725C8.95506 11.465 8.90256 11.465 8.85756 11.4725C7.82256 11.435 6.99756 10.5875 6.99756 9.53754C6.99756 8.46504 7.86006 7.60254 8.93256 7.60254C10.0051 7.60254 10.8676 8.47254 10.8676 9.53754C10.8601 10.5875 10.0351 11.4425 9.00006 11.4725Z" stroke="#131415" stroke-width="1.5" stroke-linecap="round" stroke-linejoin="round"/>
<path d="M6.81754 13.8355C5.76004 14.5405 5.76004 15.6955 6.81754 16.4005C8.01754 17.203 9.98254 17.203 11.1825 16.4005C12.24 15.6955 12.24 14.5405 11.1825 13.8355C9.99004 13.0405 8.01754 13.0405 6.81754 13.8355Z" stroke="#171717" stroke-width="1.5" stroke-linecap="round" stroke-linejoin="round"/>
</g>
<defs>
<clipPath id="clip0_7839_706">
<rect width="18" height="18" fill="white" transform="translate(0 0.5)"/>
</clipPath>
</defs>
</svg>
