<svg width="18" height="19" viewBox="0 0 18 19" fill="none" xmlns="http://www.w3.org/2000/svg">
<g clip-path="url(#clip0_7839_15214)">
<path d="M1.5 7.25V5.75C1.5 3.5 3 2 5.25 2H12.75C15 2 16.5 3.5 16.5 5.75V7.25" stroke="#131415" stroke-width="1.5" stroke-miterlimit="10" stroke-linecap="round" stroke-linejoin="round"/>
<path d="M1.5 11.75V13.25C1.5 15.5 3 17 5.25 17H12.75C15 17 16.5 15.5 16.5 13.25V11.75" stroke="#131415" stroke-width="1.5" stroke-miterlimit="10" stroke-linecap="round" stroke-linejoin="round"/>
<path d="M5.0249 7.44531L8.9999 9.74782L12.9449 7.46033" stroke="#131415" stroke-width="1.5" stroke-linecap="round" stroke-linejoin="round"/>
<path d="M9 13.8277V9.74023" stroke="#131415" stroke-width="1.5" stroke-linecap="round" stroke-linejoin="round"/>
<path d="M8.07017 5.21742L5.67017 6.55244C5.13017 6.85244 4.68018 7.60994 4.68018 8.23244V10.7749C4.68018 11.3974 5.12267 12.1549 5.67017 12.4549L8.07017 13.7899C8.58017 14.0749 9.42017 14.0749 9.93767 13.7899L12.3377 12.4549C12.8777 12.1549 13.3277 11.3974 13.3277 10.7749V8.23244C13.3277 7.60994 12.8852 6.85244 12.3377 6.55244L9.93767 5.21742C9.42017 4.92492 8.58017 4.92492 8.07017 5.21742Z" stroke="#131415" stroke-width="1.5" stroke-linecap="round" stroke-linejoin="round"/>
</g>
<defs>
<clipPath id="clip0_7839_15214">
<rect width="18" height="18" fill="white" transform="translate(0 0.5)"/>
</clipPath>
</defs>
</svg>
