<svg width="16" height="17" viewBox="0 0 16 17" fill="none" xmlns="http://www.w3.org/2000/svg">
<path fill-rule="evenodd" clip-rule="evenodd" d="M3.33317 8.5C3.33317 8.1318 3.03469 7.83333 2.6665 7.83333C2.29832 7.83333 1.99984 8.1318 1.99984 8.5C1.99984 8.8682 2.29832 9.16667 2.6665 9.16667C3.03469 9.16667 3.33317 8.8682 3.33317 8.5ZM8.6665 8.5C8.6665 8.1318 8.36804 7.83333 7.99984 7.83333C7.63164 7.83333 7.33317 8.1318 7.33317 8.5C7.33317 8.8682 7.63164 9.16667 7.99984 9.16667C8.36804 9.16667 8.6665 8.8682 8.6665 8.5ZM13.9998 8.5C13.9998 8.1318 13.7014 7.83333 13.3332 7.83333C12.965 7.83333 12.6665 8.1318 12.6665 8.5C12.6665 8.8682 12.965 9.16667 13.3332 9.16667C13.7014 9.16667 13.9998 8.8682 13.9998 8.5ZM2.6665 6.5C3.77107 6.5 4.6665 7.3954 4.6665 8.5C4.6665 9.6046 3.77107 10.5 2.6665 10.5C1.56194 10.5 0.666504 9.6046 0.666504 8.5C0.666504 7.3954 1.56194 6.5 2.6665 6.5ZM7.99984 6.5C9.10444 6.5 9.99984 7.3954 9.99984 8.5C9.99984 9.6046 9.10444 10.5 7.99984 10.5C6.89524 10.5 5.99984 9.6046 5.99984 8.5C5.99984 7.3954 6.89524 6.5 7.99984 6.5ZM15.3332 8.5C15.3332 7.3954 14.4378 6.5 13.3332 6.5C12.2286 6.5 11.3332 7.3954 11.3332 8.5C11.3332 9.6046 12.2286 10.5 13.3332 10.5C14.4378 10.5 15.3332 9.6046 15.3332 8.5Z" fill="#767A8C"/>
</svg>
