<svg width="10" height="11" viewBox="0 0 10 11" fill="none" xmlns="http://www.w3.org/2000/svg">
<path d="M5.72104 1.96211L6.45437 3.42878C6.55437 3.63294 6.82104 3.82878 7.04604 3.86628L8.37521 4.08711C9.22521 4.22878 9.42521 4.84544 8.81271 5.45378L7.77937 6.48711C7.60437 6.66211 7.50854 6.99961 7.56271 7.24128L7.85854 8.52044C8.09187 9.53294 7.55437 9.92461 6.65854 9.39544L5.41271 8.65794C5.18771 8.52461 4.81687 8.52461 4.58771 8.65794L3.34187 9.39544C2.45021 9.92461 1.90854 9.52878 2.14187 8.52044L2.43771 7.24128C2.49187 6.99961 2.39604 6.66211 2.22104 6.48711L1.18771 5.45378C0.579373 4.84544 0.775206 4.22878 1.62521 4.08711L2.95437 3.86628C3.17521 3.82878 3.44187 3.63294 3.54187 3.42878L4.27521 1.96211C4.67521 1.16628 5.32521 1.16628 5.72104 1.96211Z" fill="#FFCD39"/>
</svg>
